<svg version="1.2" xmlns="http://www.w3.org/2000/svg" viewBox="0 0 278 278" width="100%" height="100%" preserveAspectRatio="xMidYMid meet">
	<title>logo</title>
	<style>
		.s0 { fill: #000000 } 
		.s1 { fill: #e2001a } 
	</style>
<rect id="logo" x="-0" y="-0" width="278" height="27.028" style="fill:none;"/>
	<g>
		<g>
			<path class="s0" d="m134.1 153.7l2.3-13.6h10.5c0.9 0 1.6 0.2 2.2 0.5 0.7 0.3 1.2 0.8 1.5 1.3 0.4 0.6 0.5 1.3 0.5 2q0 1.3-0.4 2.3c-0.3 0.7-0.6 1.3-1.1 1.8-0.5 0.5-1.1 0.9-1.6 1.2-0.6 0.3-1.3 0.4-2 0.4h-6.4l-0.7 4.1zm6.2-7.5h4.7c0.3 0 0.7 0 0.9-0.2q0.4-0.2 0.6-0.6c0.1-0.3 0.2-0.6 0.2-1 0-0.3-0.1-0.6-0.3-0.7-0.2-0.2-0.6-0.3-1-0.3h-4.7z"/>
			<path class="s0" d="m151.1 153.7l2.4-13.6h11.3c1 0 1.7 0.2 2.3 0.5 0.7 0.3 1.2 0.8 1.4 1.3 0.3 0.6 0.5 1.2 0.5 1.9 0 0.8-0.1 1.5-0.3 2.1-0.2 0.6-0.6 1.2-1.1 1.7-0.5 0.5-1 0.9-1.7 1.2l1.7 4.9h-5.2l-1.4-4.3h-4.4l-0.8 4.3zm6.3-7.7h5.1c0.3 0 0.5-0.1 0.8-0.2 0.2-0.1 0.4-0.3 0.5-0.5q0.2-0.4 0.2-0.9c0-0.3 0-0.6-0.2-0.7-0.2-0.2-0.5-0.3-0.8-0.3h-5.2z"/>
			<path class="s0" d="m178.5 153.9c-1.7 0-3.2-0.2-4.4-0.7-1.3-0.5-2.2-1.1-2.9-2-0.6-0.9-0.9-2-0.9-3.2 0-1 0.1-2 0.5-2.9 0.3-0.9 0.8-1.7 1.4-2.3q0.9-1 2-1.7c0.9-0.4 1.8-0.8 2.7-1 1-0.2 2.1-0.3 3.3-0.3 1.8 0 3.3 0.2 4.5 0.7 1.2 0.4 2.2 1.1 2.8 2 0.7 0.8 1 1.9 1 3.1 0 1-0.2 2-0.5 2.9-0.4 0.9-0.8 1.7-1.5 2.4-0.5 0.6-1.3 1.2-2 1.6-0.9 0.4-1.8 0.7-2.8 1-1 0.3-2 0.4-3.2 0.4zm0.3-3.4c0.6 0 1.1 0 1.7-0.2 0.5-0.2 1-0.5 1.4-0.7 0.4-0.3 0.7-0.7 1-1.1 0.3-0.5 0.4-1 0.5-1.4 0-0.2 0.1-0.4 0.1-0.5 0-0.1 0-0.2 0-0.2q0-0.1 0-0.2c0-0.1 0-0.2 0-0.2q0-0.8-0.4-1.4c-0.2-0.5-0.7-0.8-1.1-1-0.6-0.2-1.2-0.4-1.9-0.4-0.7 0-1.2 0.1-1.8 0.3-0.5 0.2-0.9 0.4-1.4 0.7-0.4 0.3-0.7 0.7-0.9 1.1-0.3 0.4-0.4 0.9-0.5 1.3 0 0.2-0.1 0.4-0.1 0.5 0 0.1 0 0.2-0.1 0.2q0 0.1 0 0.2c0 0.1 0 0.2 0 0.2q0 0.8 0.5 1.4c0.2 0.5 0.7 0.8 1.1 1 0.5 0.3 1.1 0.4 1.9 0.4z"/>
			<path class="s0" d="m195.3 153.7l2.4-13.6h14.4l-0.6 3.3h-9.6l-0.4 1.8h8.3l-0.5 3.2h-8.3l-0.4 1.9h9.8l-0.6 3.3h-14.5z"/>
			<path class="s0" d="m212.3 153.7l2.3-13.6h7.5c2.4 0 4.3 0.5 5.5 1.5 1.3 0.9 2 2.3 2 4.1 0 0.9-0.2 1.9-0.5 2.8-0.2 0.8-0.7 1.6-1.1 2.2-0.6 0.7-1.2 1.2-2 1.6-0.8 0.5-1.6 0.8-2.6 1.1-0.9 0.2-1.9 0.3-2.9 0.3h-8.2zm5.4-3.4h2.7q0.8 0 1.4-0.2c0.5-0.1 0.9-0.3 1.2-0.6 0.4-0.3 0.7-0.6 0.9-1 0.2-0.4 0.4-0.8 0.5-1.3 0.1-0.2 0.1-0.4 0.1-0.6 0-0.1 0-0.2 0.1-0.3q0-0.1 0-0.2c0-0.5-0.2-1-0.4-1.3-0.2-0.4-0.5-0.7-1-0.9-0.4-0.2-0.9-0.4-1.6-0.4h-2.7z"/>
			<path class="s0" d="m238.7 153.9c-2.5 0-4.5-0.4-5.7-1.3-1.3-1-1.9-2.3-1.9-4.1 0-1.2 0.1-2.2 0.5-3.2 0.3-0.9 0.7-1.8 1.4-2.5 0.6-0.7 1.3-1.2 2.1-1.6 0.9-0.5 1.8-0.8 2.9-1 1-0.2 2.1-0.4 3.4-0.4 1.1 0 2.1 0.1 3.1 0.3 1 0.2 1.8 0.5 2.6 0.8 0.7 0.4 1.3 0.9 1.7 1.4 0.4 0.6 0.6 1.2 0.6 2 0 0.1 0 0.2 0 0.3 0 0.2 0 0.3 0 0.4h-4.8c0-0.1 0-0.1 0-0.1 0-0.3 0-0.5-0.2-0.7-0.2-0.2-0.5-0.3-0.7-0.5-0.3-0.1-0.7-0.2-1.1-0.3-0.4 0-0.8-0.1-1.2-0.1-0.8 0-1.4 0.1-2 0.2-0.6 0.2-1.2 0.4-1.6 0.7q-0.6 0.4-1 1.1c-0.3 0.4-0.4 0.9-0.6 1.4 0 0.2 0 0.4 0 0.5 0 0.1-0.1 0.3-0.1 0.3 0 0.1 0 0.3 0 0.3q0 0.1 0 0.2 0 0.9 0.4 1.5 0.4 0.5 1.3 0.8c0.5 0.2 1.2 0.3 2 0.3q1 0 1.9-0.2c0.6-0.1 1.1-0.3 1.4-0.6 0.4-0.2 0.6-0.5 0.7-0.9h-4.1l0.5-2.8h8.9l-1.3 7.6h-2.8l-0.2-1.6c-0.6 0.4-1.1 0.7-1.8 1-0.7 0.3-1.3 0.5-2 0.6q-1.1 0.2-2.3 0.2z"/>
			<path class="s0" d="m250.5 153.7l2.4-13.6h14.5l-0.7 3.3h-9.6l-0.3 1.8h8.3l-0.6 3.2h-8.3l-0.3 1.9h9.7l-0.6 3.3h-14.5z"/>
		</g>
		<g>
			<path class="s0" d="m134.1 134.7l2.3-13.6h7.5c2.4 0 4.3 0.5 5.5 1.5 1.3 1 2 2.3 2 4.1 0 1-0.2 1.9-0.4 2.8-0.3 0.8-0.7 1.6-1.2 2.2-0.6 0.7-1.2 1.3-2 1.7-0.7 0.4-1.6 0.7-2.5 1-0.9 0.2-2 0.4-3 0.4h-8.2zm5.5-3.4h2.7q0.8 0 1.4-0.2c0.5-0.1 0.9-0.3 1.2-0.6 0.4-0.3 0.6-0.6 0.9-1 0.2-0.4 0.4-0.8 0.5-1.3 0.1-0.2 0.1-0.4 0.1-0.6 0-0.1 0-0.2 0-0.3q0-0.1 0-0.2c0-0.5-0.1-1-0.3-1.3-0.2-0.4-0.6-0.7-1-0.9-0.4-0.2-1-0.4-1.6-0.4h-2.7z"/>
			<path class="s0" d="m152.5 134.7l2.3-13.6h14.5l-0.6 3.4h-9.5l-0.4 1.7h8.3l-0.6 3.2h-8.2l-0.4 1.9h9.7l-0.6 3.3h-14.5z"/>
			<path class="s0" d="m168.1 134.7l8.9-13.6h5.4l4.1 13.6h-5.1l-0.5-1.8h-6.7l-1.1 1.8zm8.3-5.2h3.7l-0.6-2.2c0-0.1 0-0.3 0-0.5 0-0.2-0.1-0.3-0.1-0.6 0-0.2-0.1-0.4-0.2-0.7 0-0.2 0-0.4 0-0.6h-0.2c-0.1 0.2-0.2 0.5-0.4 0.8-0.1 0.2-0.3 0.5-0.5 0.8-0.2 0.3-0.2 0.5-0.4 0.7z"/>
			<path class="s0" d="m188.2 134.7l2.4-13.6h4.8l-1.7 9.8h8.8l-0.7 3.8z"/>
			<path class="s0" d="m203.7 134.7l2.4-13.6h14.4l-0.6 3.4h-9.6l-0.3 1.7h8.2l-0.5 3.2h-8.3l-0.2 2h9.7l-0.6 3.3z"/>
			<path class="s0" d="m220.7 134.7l2.3-13.6h11.4c0.9 0 1.7 0.2 2.3 0.5 0.6 0.4 1.1 0.8 1.4 1.3 0.3 0.6 0.5 1.2 0.5 1.9 0 0.8-0.1 1.5-0.4 2.1-0.2 0.6-0.5 1.2-1 1.7-0.5 0.5-1 0.9-1.7 1.2l1.7 4.9h-5.3l-1.3-4.2h-4.4l-0.8 4.2zm6.2-7.6h5.1c0.3 0 0.5-0.1 0.8-0.2 0.2-0.1 0.4-0.3 0.5-0.5q0.2-0.4 0.2-0.9c0-0.3 0-0.6-0.2-0.7-0.2-0.2-0.5-0.3-0.8-0.3h-5.1z"/>
		</g>
		<g>
			<path class="s1" d="m90 132c0 0.3 0.1 0.4 0.1 0.6q0 0.3 0 0.6c0 0.2-0.1 0.6-0.2 0.9 0 0.4-0.1 0.9-0.2 1.6-0.3 1.3-0.7 2.5-1.3 3.6-0.6 1.1-1.5 2-2.4 2.8-1 0.7-2.1 1.3-3.4 1.8-1.2 0.4-2.6 0.6-4.1 0.6h-7.5l2.2-12.5h-0.2-12.3-1.1-23.3c1.6 0.9 3.3 1.8 5 2.8h17.8l-0.4 2.9h-13c1.3 0.9 2.7 1.9 4.1 2.8h8.3 0.1l-2.3 13.4h23c3 0 5.7-0.4 8.3-1 2.6-0.6 5-1.6 7.1-2.8 2.1-1.3 3.9-2.8 5.4-4.7 1.4-1.8 2.5-3.8 3.3-6.2 0.8-2.2 1.1-4.6 1.2-7.2h-14.2z"/>
			<path class="s1" d="m61.8 129.2h11.9 15.5 8.6 6c-0.1-1-0.3-1.9-0.7-2.8h-7.7-9.5-11.7-10.7-2.9-36.9c2.4 0.8 4.7 1.8 7 2.8h29.5z"/>
			<path class="s1" d="m66.3 123.5h23.5 12c-0.7-1-1.6-2-2.6-2.8h-8.5-17.4-11.6-60.2c4.8 0.9 9 1.8 13 2.8h46.7z"/>
		</g>
		<path fill-rule="evenodd" class="s0" d="m119.5 120.7v33.2h-0.7v-33.2z"/>
	</g>
</svg>
