<svg version="1.2" xmlns="http://www.w3.org/2000/svg" viewBox="0 0 170 100" width="170" height="100">
	<title>Logo1_Dealer Pro Edge_2024-svg</title>
	<style>
		.s0 { fill: #e2001a } 
	</style>
	<g>
		<g>
			<path class="s0" d="m119 46c0 0.3 0.1 0.5 0.1 0.7 0 0.2 0 0.5 0 0.8 0 0.3-0.1 0.7-0.1 1.1-0.1 0.5-0.2 1.1-0.3 1.9-0.3 1.7-0.8 3.2-1.6 4.6-0.8 1.4-1.8 2.6-3.1 3.5-1.3 1-2.7 1.8-4.3 2.3-1.6 0.6-3.3 0.8-5.2 0.8h-9.6l2.8-15.9h-0.2-15.6-1.4-29.6c2.1 1.1 4.1 2.3 6.3 3.6h22.7l-0.6 3.6h-16.5c1.7 1.1 3.5 2.3 5.3 3.6h10.5 0.2l-3 17h29.2c3.8 0 7.3-0.4 10.6-1.2q5-1.2 9-3.6c2.7-1.6 5-3.5 6.8-5.9 1.8-2.3 3.2-4.9 4.2-7.9 0.9-2.8 1.4-5.9 1.5-9.2h-18.1z"/>
			<path class="s0" d="m81.1 42.4h2 15.2 19.8 18.6q-0.3-2-0.9-3.6h-9.8-40.6-50.5c3.1 1.1 6 2.3 8.9 3.6z"/>
			<path class="s0" d="m82.4 35.2h6.5 45.1c-0.9-1.3-2-2.5-3.4-3.6h-10.7-22.1-14.8-76.5c6.1 1.1 11.5 2.3 16.5 3.6z"/>
		</g>
	</g>
</svg>